<svg width="21" height="26" viewBox="0 0 21 26" xmlns="http://www.w3.org/2000/svg">
<path d="M20.5244 22.1709L19.0557 5.63321C19.0243 5.26606 18.7148 4.98807 18.3529 4.98807H15.3317C15.2898 2.22916 13.0344 0 10.265 0C7.49558 0 5.2402 2.22916 5.19824 4.98807H2.17707C1.80992 4.98807 1.5057 5.26606 1.47423 5.63321L0.00561141 22.1709C0.00561141 22.1919 0.000366211 22.2129 0.000366211 22.2339C0.000366211 24.1169 1.726 25.6484 3.85025 25.6484H16.6797C18.804 25.6484 20.5296 24.1169 20.5296 22.2339C20.5296 22.2129 20.5296 22.1919 20.5244 22.1709ZM10.265 1.41617C12.2529 1.41617 13.8736 3.01068 13.9156 4.98807H6.61441C6.65637 3.01068 8.2771 1.41617 10.265 1.41617ZM16.6797 24.2323H3.85025C2.518 24.2323 1.43752 23.3511 1.41654 22.2654L2.82222 6.40949H5.19299V8.55997C5.19299 8.95335 5.5077 9.26805 5.90108 9.26805C6.29446 9.26805 6.60917 8.95335 6.60917 8.55997V6.40949H13.9156V8.55997C13.9156 8.95335 14.2303 9.26805 14.6236 9.26805C15.017 9.26805 15.3317 8.95335 15.3317 8.55997V6.40949H17.7025L19.1134 22.2654C19.0925 23.3511 18.0067 24.2323 16.6797 24.2323Z"/>
</svg>
