<svg width="28" height="27" viewBox="0 0 28 27" xmlns="http://www.w3.org/2000/svg">
<path d="M1.66663 1H4.13346C4.66038 1 5.13788 1.31031 5.35188 1.79182L6.18514 3.66667M10.3333 13H20.8929C21.3713 13 21.8131 12.7436 22.0505 12.3282L25.86 5.66152C26.368 4.77265 25.7262 3.66667 24.7024 3.66667H6.18514M10.3333 13L6.18514 3.66667M10.3333 13L8.4086 16.2078C8.35854 16.2912 8.31629 16.3794 8.29201 16.4736C8.11237 17.1703 8.17232 18.3333 9.66663 18.3333C11.2666 18.3333 21 18.3333 25.6666 18.3333" stroke-width="1.5" stroke-linecap="round" stroke-linejoin="round"/>
<circle cx="9" cy="25" r="2" />
<circle cx="25.3333" cy="25" r="2" />
</svg>
