<svg width="24" height="24" viewBox="0 0 24 24" xmlns="http://www.w3.org/2000/svg">
<path fill-rule="evenodd" clip-rule="evenodd" d="M0.5 9.33333C0.5 4.45482 4.45482 0.5 9.33333 0.5H14.6667C19.5452 0.5 23.5 4.45482 23.5 9.33333V10.6667C23.5 15.5452 19.5452 19.5 14.6667 19.5H14.1667V20V23.2235L6.38773 19.6876C3.44406 18.3496 1.36528 15.7003 0.715436 12.6151L0.715477 12.615L0.714051 12.6087C0.574001 11.9843 0.5 11.3344 0.5 10.6667V9.33333ZM9.33333 2.16667C5.37529 2.16667 2.16667 5.37529 2.16667 9.33333V10.6667C2.16667 11.2109 2.22694 11.7384 2.34032 12.2439L2.34341 12.2577L2.34632 12.2715L2.83383 12.1689L2.34632 12.2715C2.88838 14.8451 4.62268 17.0546 7.07741 18.1703L11.7931 20.3138L12.5 20.6352V19.8587V17.8333H14.6667C18.6247 17.8333 21.8333 14.6247 21.8333 10.6667V9.33333C21.8333 5.37529 18.6247 2.16667 14.6667 2.16667H9.33333Z"/>
</svg>
