<svg width="20" height="20" viewBox="0 0 20 20" fill="none" xmlns="http://www.w3.org/2000/svg">
<path d="M10.5 0.500244C7 0.500244 3.9 2.40024 2.3 5.30024L0 3.00024V9.50024H6.5L3.7 6.70024C5 4.20024 7.5 2.50024 10.5 2.50024C14.6 2.50024 18 5.90024 18 10.0002C18 14.1002 14.6 17.5002 10.5 17.5002C7.2 17.5002 4.5 15.4002 3.4 12.5002H1.3C2.4 16.5002 6.1 19.5002 10.5 19.5002C15.8 19.5002 20 15.2002 20 10.0002C20 4.80024 15.7 0.500244 10.5 0.500244ZM9 5.50024V10.6002L13.7 13.4002L14.5 12.1002L10.5 9.70024V5.50024H9Z" fill="white" fill-opacity="0.32"/>
</svg>
