<svg width="34" height="34" viewBox="0 0 34 34" xmlns="http://www.w3.org/2000/svg">
<g clip-path="url(#clip0_2702_36241)">
<path d="M2.51536 14.5139C1.14461 15.8847 1.14461 18.115 2.51536 19.4858C3.30917 20.2796 4.42615 20.634 5.5118 20.4743C6.08227 22.361 7.11147 24.0819 8.51472 25.4851C9.91797 26.8884 11.6387 27.9175 13.5255 28.4881C13.3659 29.5737 13.7203 30.6907 14.5141 31.4845C15.8848 32.8553 18.1152 32.8553 19.4859 31.4845C20.2797 30.6907 20.6341 29.5737 20.4745 28.4881C22.3612 27.9176 24.082 26.8884 25.4853 25.4851C26.8885 24.0819 27.9177 22.361 28.4882 20.4743C29.5738 20.634 30.6908 20.2796 31.4846 19.4858C32.8554 18.115 32.8554 15.8847 31.4846 14.5139C30.6908 13.7201 29.5738 13.3658 28.4882 13.5254C27.9176 11.6386 26.8885 9.91783 25.4853 8.51458C24.082 7.11133 22.3612 6.08213 20.4745 5.51166C20.6341 4.42601 20.2797 3.30903 19.4859 2.51522C18.1152 1.14447 15.8848 1.14447 14.5141 2.51522C13.7203 3.30903 13.3659 4.42601 13.5255 5.51166C11.6387 6.08226 9.91797 7.11133 8.51472 8.51458C7.11147 9.91783 6.0824 11.6386 5.5118 13.5254C4.42615 13.3658 3.30917 13.7201 2.51536 14.5139L2.51536 14.5139ZM5.75768 15.0349L6.50734 15.3226L6.69352 14.5414C7.14694 12.6376 8.1206 10.8974 9.50909 9.50895C10.8976 8.12046 12.6377 7.1468 14.5415 6.69338L15.3228 6.5072L15.0351 5.75753C14.7361 4.97848 14.9219 4.09611 15.5084 3.50959C16.3309 2.68716 17.6691 2.68716 18.4916 3.50959C19.0781 4.09611 19.2639 4.97848 18.9649 5.75753L18.6771 6.50733L19.4585 6.69338C21.3623 7.1468 23.1024 8.12046 24.4909 9.50895C25.8794 10.8974 26.8531 12.6376 27.3065 14.5414L27.4927 15.3226L28.2423 15.0349C29.0214 14.736 29.9037 14.9218 30.4903 15.5083C31.3127 16.3307 31.3127 17.669 30.4903 18.4914C29.9037 19.0779 29.0214 19.2637 28.2423 18.9648L27.4925 18.677L27.3065 19.4583C26.8531 21.3621 25.8794 23.1023 24.4909 24.4908C23.1024 25.8793 21.3623 26.8529 19.4585 27.3063L18.6771 27.4924L18.9649 28.2422C19.2639 29.0212 19.0781 29.9036 18.4916 30.4901C17.6691 31.3126 16.3309 31.3126 15.5084 30.4901C14.9219 29.9036 14.7361 29.0212 15.0351 28.2422L15.3228 27.4925L14.5415 27.3063C12.6377 26.8529 10.8976 25.8793 9.50909 24.4908C8.1206 23.1023 7.14694 21.3621 6.69352 19.4583L6.50734 18.6771L5.75768 18.9648C4.97862 19.2637 4.09625 19.0779 3.50973 18.4914C2.6873 17.669 2.6873 16.3307 3.50973 15.5083C4.09625 14.9218 4.97862 14.736 5.75768 15.0349Z"/>
<path d="M10.5035 23.4965C14.0766 27.0696 19.9239 27.0691 23.4965 23.4965C27.0697 19.9233 27.0692 14.076 23.4965 10.5034C19.9234 6.93025 14.0761 6.93077 10.5035 10.5034C6.93033 14.0765 6.93085 19.9239 10.5035 23.4965ZM18.3297 9.33603C19.7512 9.58061 21.1169 10.2207 22.2487 11.2559C21.9669 12.7402 21.0357 14.0311 19.7222 14.7752C19.6485 14.6852 19.5698 14.5979 19.4859 14.514C19.2454 14.2734 18.9781 14.0761 18.6939 13.9201C19.1141 12.4292 19.0006 10.7874 18.3297 9.33603ZM15.6594 24.6617C14.2408 24.4156 12.8782 23.7755 11.7489 22.7418C12.0203 21.2657 12.9772 19.9618 14.2986 19.2489C14.3665 19.3302 14.4378 19.4096 14.5141 19.4858C14.7624 19.7342 15.0391 19.9368 15.3337 20.0952C14.8823 21.602 15.0066 23.245 15.6594 24.6617ZM13.6333 18.01C12.8449 18.434 12.1474 19.0248 11.5913 19.7456C11.1823 20.2758 10.8618 20.8616 10.6382 21.4809C9.7626 20.2391 9.29325 18.7966 9.23007 17.3395C10.4671 16.5119 12.0621 16.2591 13.5034 16.6522C13.4585 17.107 13.5018 17.5688 13.6333 18.01ZM18.4916 15.5084C19.314 16.3308 19.314 17.6691 18.4916 18.4915C17.6691 19.3139 16.3309 19.3139 15.5084 18.4915C14.686 17.6691 14.686 16.3308 15.5084 15.5084C16.3309 14.6859 17.6691 14.6859 18.4916 15.5084ZM20.0943 18.668C21.6014 19.1196 23.2448 18.9951 24.6616 18.3421C24.4152 19.7607 23.7747 21.1234 22.7401 22.2527C21.2641 21.9811 19.9604 21.0239 19.2478 19.7022C19.3295 19.6342 19.4093 19.5625 19.4859 19.4858C19.7337 19.238 19.9361 18.9619 20.0943 18.668ZM20.4989 17.3218C20.5387 16.8861 20.4974 16.4445 20.3755 16.0212C21.7653 15.2464 22.8231 13.9918 23.3574 12.5127C24.2379 13.7589 24.7089 15.2077 24.7703 16.6711C23.5325 17.5139 21.9365 17.7539 20.4989 17.3218ZM13.9193 15.3077C12.4254 14.8869 10.7844 15.0024 9.33585 15.6718C9.58017 14.2505 10.2198 12.8848 11.2545 11.7529C12.7388 12.0344 14.0298 12.9655 14.7742 14.2787C14.6845 14.3522 14.5976 14.4305 14.5141 14.514C14.2731 14.755 14.0754 15.0228 13.9193 15.3077ZM17.3302 24.7702C16.4875 23.5325 16.2479 21.9364 16.6802 20.4991C17.1253 20.5395 17.5768 20.4956 18.0082 20.3672C18.755 21.7562 20.0002 22.8284 21.4791 23.3631C20.2351 24.2397 18.7897 24.7087 17.3302 24.7702ZM16.6617 9.22999C17.4895 10.467 17.7428 12.0621 17.3497 13.5034C16.9046 13.4594 16.4526 13.5 16.0199 13.6248C15.2447 12.2354 13.9898 11.1778 12.5107 10.6439C13.7548 9.76434 15.2009 9.29292 16.6617 9.22999Z"/>
</g>
<defs>
<clipPath id="clip0_2702_36241">
<rect width="24" height="24" fill="white" transform="translate(17 0.0292969) rotate(45)"/>
</clipPath>
</defs>
</svg>
