<svg width="121" height="118" viewBox="0 0 121 118" fill="none" xmlns="http://www.w3.org/2000/svg">
<circle cx="62.2293" cy="58.7714" r="58.7714" fill="#FFE790"/>
<circle cx="62.2293" cy="58.7714" r="58.7714" fill="url(#paint0_linear_89_14355)"/>
<g clip-path="url(#clip0_89_14355)">
<path d="M62.9722 87.2681H7.3218C4.09994 87.2681 1.46387 84.6321 1.46387 81.4102V25.7598C1.46387 22.5379 4.09994 19.9019 7.3218 19.9019H62.9722C66.1941 19.9019 68.8301 22.5379 68.8301 25.7598V81.4102C68.8301 84.6321 66.1941 87.2681 62.9722 87.2681Z" fill="#D3D3D3" stroke="#303353" stroke-width="2.92897" stroke-miterlimit="10"/>
<path d="M35.1476 81.4114C50.515 81.4114 62.9728 68.9536 62.9728 53.5862C62.9728 38.2188 50.515 25.761 35.1476 25.761C19.7802 25.761 7.32239 38.2188 7.32239 53.5862C7.32239 68.9536 19.7802 81.4114 35.1476 81.4114Z" fill="#E6E6E6" stroke="#303353" stroke-width="2.92897" stroke-miterlimit="10"/>
<path d="M35.1451 53.588C39.0274 53.588 42.1746 48.3426 42.1746 41.8721C42.1746 35.4016 39.0274 30.1562 35.1451 30.1562C31.2628 30.1562 28.1156 35.4016 28.1156 41.8721C28.1156 48.3426 31.2628 53.588 35.1451 53.588Z" fill="#999999"/>
<path d="M35.1467 30.1562V53.588C38.9544 53.588 42.1763 48.3158 42.1763 41.8721C42.1763 35.4284 38.9544 30.1562 35.1467 30.1562Z" fill="#D3D3D3"/>
<path d="M35.1451 53.5879C38.9528 53.5879 42.1746 58.86 42.1746 65.3038C42.1746 71.7475 38.9528 77.0196 35.1451 77.0196C31.3375 77.0196 28.1156 71.7475 28.1156 65.3038C28.1156 58.86 31.3375 53.5879 35.1451 53.5879Z" fill="#999999"/>
<path d="M35.1451 53.5879C31.3375 53.5879 28.1156 58.86 28.1156 65.3038C28.1156 71.7475 31.3375 77.0196 35.1451 77.0196V53.5879Z" fill="#D3D3D3"/>
<path d="M35.1476 53.5857C35.1476 57.3933 29.8754 60.6152 23.4317 60.6152C16.988 60.6152 11.7158 57.3933 11.7158 53.5857C11.7158 49.778 16.988 46.5562 23.4317 46.5562C29.8754 46.5562 35.1476 49.778 35.1476 53.5857Z" fill="#999999"/>
<path d="M35.1476 53.5857C35.1476 49.778 29.8754 46.5562 23.4317 46.5562C16.988 46.5562 11.7158 49.778 11.7158 53.5857H35.1476Z" fill="#D3D3D3"/>
<path d="M35.1467 53.5857C35.1467 49.778 40.4189 46.5562 46.8626 46.5562C53.3063 46.5562 58.5785 49.778 58.5785 53.5857C58.5785 57.3933 53.3063 60.6152 46.8626 60.6152C40.4189 60.6152 35.1467 57.3933 35.1467 53.5857Z" fill="#999999"/>
<path d="M35.1467 53.5879C35.1467 57.3955 40.4189 60.6174 46.8626 60.6174C53.3063 60.6174 58.5785 57.3955 58.5785 53.5879H35.1467Z" fill="#D3D3D3"/>
<path d="M35.1484 58.2726C37.7366 58.2726 39.8347 56.1745 39.8347 53.5863C39.8347 50.9981 37.7366 48.8999 35.1484 48.8999C32.5602 48.8999 30.462 50.9981 30.462 53.5863C30.462 56.1745 32.5602 58.2726 35.1484 58.2726Z" fill="#999999"/>
<path d="M35.1488 75.5546C47.281 75.5546 57.116 65.7196 57.116 53.5874C57.116 41.4552 47.281 31.6201 35.1488 31.6201C23.0166 31.6201 13.1815 41.4552 13.1815 53.5874C13.1815 65.7196 23.0166 75.5546 35.1488 75.5546Z" stroke="#303353" stroke-width="2.92897" stroke-miterlimit="10"/>
<path d="M35.1474 69.6967C44.0443 69.6967 51.2567 62.4843 51.2567 53.5874C51.2567 44.6904 44.0443 37.478 35.1474 37.478C26.2505 37.478 19.0381 44.6904 19.0381 53.5874C19.0381 62.4843 26.2505 69.6967 35.1474 69.6967Z" stroke="#303353" stroke-width="2.92897" stroke-miterlimit="10"/>
<path d="M35.1486 63.8363C40.8103 63.8363 45.4 59.2466 45.4 53.5849C45.4 47.9232 40.8103 43.3335 35.1486 43.3335C29.4869 43.3335 24.8972 47.9232 24.8972 53.5849C24.8972 59.2466 29.4869 63.8363 35.1486 63.8363Z" stroke="#303353" stroke-width="2.92897" stroke-miterlimit="10"/>
<path d="M35.1467 57.9783C37.5732 57.9783 39.5402 56.0113 39.5402 53.5849C39.5402 51.1584 37.5732 49.1914 35.1467 49.1914C32.7203 49.1914 30.7533 51.1584 30.7533 53.5849C30.7533 56.0113 32.7203 57.9783 35.1467 57.9783Z" stroke="#303353" stroke-width="2.92897" stroke-miterlimit="10"/>
<path d="M9.66345 80.8277L33.681 56.8101C34.5597 55.9315 35.7313 55.9315 36.61 56.8101L60.6275 80.8277" stroke="#303353" stroke-width="2.92897" stroke-miterlimit="10" stroke-linecap="round"/>
<path d="M11.548 82.6377C12.5774 81.6082 12.5774 79.9392 11.548 78.9097C10.5185 77.8803 8.84946 77.8803 7.82002 78.9097C6.79058 79.9392 6.79058 81.6082 7.82002 82.6376C8.84946 83.6671 10.5185 83.6671 11.548 82.6377Z" fill="#303353"/>
<path d="M62.5428 82.7143C63.5723 81.6849 63.5723 80.0158 62.5428 78.9864C61.5134 77.9569 59.8443 77.9569 58.8149 78.9864C57.7855 80.0158 57.7855 81.6849 58.8149 82.7143C59.8443 83.7437 61.5134 83.7437 62.5428 82.7143Z" fill="#303353"/>
<path d="M60.6274 26.6406L36.6098 50.6582C35.7311 51.5369 34.5596 51.5369 33.6809 50.6582L9.66333 26.6406" stroke="#303353" stroke-width="2.92897" stroke-miterlimit="10" stroke-linecap="round"/>
<path d="M62.5409 28.5234C63.5703 27.4939 63.5703 25.8249 62.5409 24.7955C61.5114 23.766 59.8424 23.766 58.8129 24.7955C57.7835 25.8249 57.7835 27.4939 58.8129 28.5234C59.8424 29.5528 61.5114 29.5528 62.5409 28.5234Z" fill="#303353"/>
<path d="M11.5487 28.4516C12.5781 27.4222 12.5781 25.7531 11.5487 24.7237C10.5192 23.6942 8.85019 23.6942 7.82075 24.7237C6.79131 25.7531 6.79131 27.4222 7.82075 28.4516C8.85019 29.4811 10.5192 29.4811 11.5487 28.4516Z" fill="#303353"/>
</g>
<defs>
<linearGradient id="paint0_linear_89_14355" x1="98.7081" y1="14.1862" x2="29.8037" y2="96.2635" gradientUnits="userSpaceOnUse">
<stop stop-color="#FF8789"/>
<stop offset="1" stop-color="#FFE790"/>
</linearGradient>
<clipPath id="clip0_89_14355">
<rect width="70.2952" height="70.2952" fill="white" transform="translate(0 18.4377)"/>
</clipPath>
</defs>
</svg>
