<svg width="24" height="24" viewBox="0 0 24 24" fill="none" xmlns="http://www.w3.org/2000/svg">
<g clip-path="url(#clip0_2429_31858)">
<path d="M17.9999 14.2499V16.4999H2.56065L5.78035 13.2802L4.71986 12.2197L0.219934 16.7197C-0.0733114 17.0129 -0.0733114 17.4869 0.219934 17.7801L4.71986 22.2801L5.78035 21.2196L2.56065 17.9999H18.7499C19.1646 17.9999 19.4999 17.6646 19.4999 17.2499V14.2499H17.9999Z" fill="white" fill-opacity="0.87"/>
<path d="M23.7801 6.21966L19.2801 1.71973L18.2197 2.78021L21.4394 5.99991H5.25011C4.83612 5.99991 4.50012 6.33515 4.50012 6.7499V9.74985H6.0001V7.49989H21.4394L18.2197 10.7196L19.2801 11.7801L23.7801 7.28014C24.0733 6.98689 24.0733 6.5129 23.7801 6.21966Z" fill="white" fill-opacity="0.87"/>
</g>
<defs>
<clipPath id="clip0_2429_31858">
<rect width="24" height="24" fill="white"/>
</clipPath>
</defs>
</svg>
