<svg width="26" height="22" viewBox="0 0 26 22" xmlns="http://www.w3.org/2000/svg">
<path d="M23 0.779102H3.00245C1.59498 0.779102 0.45 1.92404 0.45 3.33155V3.3317V18.6714C0.45 20.0775 1.59386 21.2214 3 21.2214H23C24.4061 21.2214 25.55 20.0775 25.55 18.6714V18.6686V18.6655V18.6621V18.6583V18.6542V18.6498V18.6451V18.6401V18.6348V18.6291V18.6231V18.6169V18.6103V18.6034V18.5962V18.5887V18.5809V18.5728V18.5643V18.5556V18.5466V18.5373V18.5277V18.5178V18.5076V18.4971V18.4863V18.4753V18.4639V18.4523V18.4403V18.4281V18.4156V18.4028V18.3898V18.3764V18.3628V18.3489V18.3347V18.3203V18.3055V18.2906V18.2753V18.2597V18.2439V18.2279V18.2115V18.1949V18.1781V18.1609V18.1435V18.1259V18.108V18.0898V18.0714V18.0527V18.0338V18.0146V17.9952V17.9755V17.9556V17.9354V17.915V17.8944V17.8734V17.8523V17.8309V17.8093V17.7874V17.7653V17.743V17.7204V17.6976V17.6746V17.6513V17.6278V17.6041V17.5802V17.556V17.5316V17.507V17.4821V17.4571V17.4318V17.4063V17.3806V17.3547V17.3286V17.3022V17.2756V17.2489V17.2219V17.1947V17.1673V17.1397V17.1119V17.0839V17.0557V17.0273V16.9987V16.9699V16.9409V16.9117V16.8823V16.8528V16.823V16.7931V16.7629V16.7326V16.7021V16.6714V16.6405V16.6094V16.5782V16.5468V16.5152V16.4834V16.4515V16.4193V16.387V16.3546V16.3219V16.2891V16.2561V16.223V16.1897V16.1562V16.1226V16.0888V16.0548V16.0207V15.9865V15.952V15.9175V15.8827V15.8478V15.8128V15.7776V15.7423V15.7068V15.6712V15.6354V15.5995V15.5634V15.5272V15.4909V15.4544V15.4178V15.381V15.3442V15.3071V15.27V15.2327V15.1953V15.1578V15.1201V15.0823V15.0444V15.0064V14.9682V14.9299V14.8915V14.853V14.8144V14.7756V14.7368V14.6978V14.6587V14.6195V14.5802V14.5408V14.5013V14.4617V14.4219V14.3821V14.3422V14.3021V14.262V14.2218V14.1814V14.141V14.1005V14.0599V14.0192V13.9784V13.9376V13.8966V13.8556V13.8144V13.7732V13.7319V13.6905V13.6491V13.6075V13.5659V13.5242V13.4825V13.4406V13.3987V13.3567V13.3147V13.2726V13.2304V13.1881V13.1458V13.1035V13.061V13.0185V12.976V12.9334V12.8907V12.848V12.8052V12.7623V12.7195V12.6765V12.6335V12.5905V12.5474V12.5043V12.4611V12.4179V12.3747V12.3314V12.288V12.2447V12.2013V12.1578V12.1144V12.0709V12.0273V11.9838V11.9402V11.8965V11.8529V11.8092V11.7655V11.7218V11.6781V11.6343V11.5905V11.5467V11.5029V11.4591V11.4153V11.3714V11.3275V11.2837V11.2398V11.1959V11.152V11.1081V11.0642V11.0203V10.9764V10.9325V10.8886V10.8447V10.8009V10.757V10.7131V10.6692V10.6254V10.5815V10.5377V10.4939V10.4501V10.4063V10.3625V10.3187V10.275V10.2313V10.1876V10.1439V10.1003V10.0567V10.0131V9.96954V9.92601V9.88251V9.83905V9.79562V9.75222V9.70886V9.66554V9.62226V9.57902V9.53582V9.49266V9.44955V9.40648V9.36346V9.32049V9.27756V9.23469V9.19187V9.1491V9.10638V9.06373V9.02112V8.97858V8.9361V8.89367V8.85131V8.80902V8.76678V8.72462V8.68252V8.64048V8.59852V8.55663V8.51481V8.47307V8.4314V8.3898V8.34828V8.30684V8.26549V8.22421V8.18301V8.1419V8.10088V8.05994V8.01908V7.97832V7.93764V7.89706V7.85657V7.81618V7.77588V7.73567V7.69556V7.65556V7.61565V7.57584V7.53614V7.49654V7.45705V7.41766V7.37838V7.33921V7.30016V7.26121V7.22237V7.18365V7.14505V7.10656V7.06819V7.02994V6.99181V6.95381V6.91592V6.87816V6.84053V6.80302V6.76565V6.7284V6.69128V6.65429V6.61744V6.58073V6.54414V6.5077V6.47139V6.43523V6.3992V6.36332V6.32758V6.29199V6.25654V6.22124V6.18609V6.15109V6.11624V6.08154V6.047V6.01261V5.97838V5.94431V5.91039V5.87664V5.84304V5.80961V5.77635V5.74325V5.71031V5.67755V5.64495V5.61252V5.58027V5.54818V5.51628V5.48454V5.45299V5.42161V5.39041V5.35939V5.32856V5.29791V5.26744V5.23716V5.20706V5.17715V5.14744V5.11791V5.08858V5.05944V5.03049V5.00174V4.97319V4.94483V4.91668V4.88872V4.86097V4.83343V4.80608V4.77895V4.75202V4.7253V4.69879V4.67249V4.6464V4.62053V4.59487V4.56943V4.5442V4.5192V4.49442V4.46985V4.44551V4.4214V4.3975V4.37384V4.3504V4.3272V4.30422V4.28147V4.25896V4.23668V4.21464V4.19283V4.17127V4.14994V4.12885V4.108V4.0874V4.06704V4.04693V4.02706V4.00745V3.98808V3.96896V3.9501V3.93148V3.91313V3.89503V3.87718V3.8596V3.84227V3.82521V3.8084V3.79186V3.77559V3.75958V3.74384V3.72837V3.71317V3.69824V3.68358V3.66919V3.65508V3.64125V3.62769V3.61442V3.60142V3.58871V3.57627V3.56413V3.55226V3.54069V3.5294V3.5184V3.50769V3.49727V3.48714V3.47731V3.46778V3.45854V3.4496V3.44096V3.43262V3.42458V3.41684V3.40941V3.40229V3.39547V3.38896V3.38276V3.37686V3.37129V3.36602V3.36107V3.35644V3.35212V3.34812V3.34444V3.34108V3.33805V3.33533V3.33295V3.33088V3.32915C25.55 1.92301 24.4061 0.779102 23 0.779102ZM2.02059 3.33155C2.02059 2.79024 2.4611 2.34969 3.00245 2.34969H23C23.54 2.34969 23.9794 2.78912 23.9794 3.3291V4.50993C23.6777 4.38379 23.347 4.31356 23 4.31356H3.00245C2.45992 4.31356 2.02059 3.87428 2.02059 3.3317V3.33155ZM23 19.6508H3C2.45997 19.6508 2.02059 19.2113 2.02059 18.6714V18.6678V18.664V18.6599V18.6555V18.6509V18.6461V18.641V18.6356V18.63V18.6242V18.618V18.6117V18.6051V18.5982V18.5911V18.5838V18.5762V18.5684V18.5603V18.552V18.5434V18.5347V18.5256V18.5164V18.5069V18.4971V18.4872V18.477V18.4665V18.4559V18.445V18.4339V18.4225V18.411V18.3992V18.3872V18.3749V18.3624V18.3498V18.3368V18.3237V18.3104V18.2968V18.283V18.269V18.2548V18.2404V18.2258V18.2109V18.1959V18.1806V18.1652V18.1495V18.1336V18.1175V18.1012V18.0847V18.068V18.0511V18.034V18.0168V17.9993V17.9816V17.9637V17.9456V17.9273V17.9089V17.8902V17.8714V17.8523V17.8331V17.8137V17.7941V17.7743V17.7543V17.7342V17.7138V17.6933V17.6726V17.6517V17.6307V17.6094V17.588V17.5664V17.5447V17.5227V17.5006V17.4784V17.4559V17.4333V17.4105V17.3876V17.3644V17.3412V17.3177V17.2941V17.2703V17.2464V17.2223V17.198V17.1736V17.149V17.1243V17.0994V17.0744V17.0492V17.0239V16.9984V16.9727V16.947V16.921V16.8949V16.8687V16.8423V16.8158V16.7892V16.7623V16.7354V16.7083V16.6811V16.6537V16.6262V16.5986V16.5708V16.5429V16.5149V16.4867V16.4584V16.43V16.4015V16.3728V16.344V16.315V16.286V16.2568V16.2275V16.1981V16.1685V16.1388V16.1091V16.0792V16.0491V16.019V15.9888V15.9584V15.9279V15.8973V15.8666V15.8358V15.8049V15.7739V15.7428V15.7115V15.6802V15.6488V15.6172V15.5856V15.5538V15.522V15.4901V15.458V15.4259V15.3937V15.3613V15.3289V15.2964V15.2638V15.2311V15.1984V15.1655V15.1326V15.0995V15.0664V15.0332V14.9999V14.9665V14.9331V14.8995V14.8659V14.8322V14.7985V14.7646V14.7307V14.6967V14.6627V14.6286V14.5943V14.5601V14.5257V14.4913V14.4569V14.4223V14.3877V14.353V14.3183V14.2835V14.2487V14.2137V14.1788V14.1438V14.1087V14.0735V14.0383V14.0031V13.9678V13.9324V13.897V13.8616V13.8261V13.7905V13.7549V13.7193V13.6836V13.6479V13.6121V13.5763V13.5405V13.5046V13.4687V13.4327V13.3967V13.3607V13.3246V13.2885V13.2524V13.2162V13.18V13.1438V13.1076V13.0713V13.035V12.9986V12.9623V12.9259V12.8895V12.8531V12.8167V12.7802V12.7438V12.7073V12.6708V12.6342V12.5977V12.5612V12.5246V12.488V12.4515V12.4149V12.3783V12.3417V12.3051V12.2685V12.2319V12.1952V12.1586V12.122V12.0854V12.0488V12.0122V11.9756V11.9389V11.9023V11.8658V11.8292V11.7926V11.756V11.7195V11.6829V11.6464V11.6099V11.5734V11.5369V11.5004V11.464V11.4276V11.3911V11.3547V11.3184V11.282V11.2457V11.2094V11.1731V11.1369V11.1007V11.0645V11.0283V10.9922V10.9561V10.9201V10.884V10.848V10.8121V10.7762V10.7403V10.7045V10.6687V10.6329V10.5972V10.5615V10.5259V10.4903V10.4548V10.4193V10.3838V10.3484V10.3131V10.2778V10.2426V10.2074V10.1723V10.1372V10.1022V10.0672V10.0323V9.99748V9.9627V9.92798V9.89333V9.85874V9.82421V9.78975V9.75535V9.72103V9.68677V9.65258V9.61846V9.58442V9.55044V9.51654V9.48272V9.44897V9.4153V9.38171V9.34819V9.31476V9.28141V9.24813V9.21495V9.18184V9.14882V9.11589V9.08304V9.05029V9.01762V8.98504V8.95255V8.92016V8.88785V8.85565V8.82353V8.79152V8.7596V8.72778V8.69605V8.66443V8.63291V8.60149V8.57018V8.53897V8.50787V8.47687V8.44598V8.4152V8.38452V8.35396V8.32351V8.29317V8.26295V8.23284V8.20284V8.17296V8.1432V8.11356V8.08404V8.05464V8.02536V7.9962V7.96717V7.93826V7.90948V7.88082V7.85229V7.82389V7.79562V7.76749V7.73948V7.7116V7.68386V7.65626V7.62879V7.60146V7.57426V7.54721V7.52029V7.49352V7.46689V7.4404V7.41405V7.38785V7.3618V7.33589V7.31013V7.28452V7.25906V7.23375V7.2086V7.18359V7.15874V7.13405V7.10951V7.08513V7.06091V7.03685V7.01295V6.98921V6.96563V6.94221V6.91896V6.89588V6.87296V6.85021V6.82763V6.80521V6.78297V6.7609V6.739V6.71728V6.69573V6.67435V6.65315V6.63213V6.61129V6.59063V6.57015V6.54985V6.52973V6.5098V6.49005V6.47049V6.45111V6.43192V6.41292V6.39411V6.37549V6.35707V6.33883V6.32079V6.30295V6.2853V6.26785V6.25059V6.23354V6.21668V6.20003V6.18358V6.16733V6.15128V6.13544V6.11981V6.10438V6.08916V6.07415V6.05936V6.04477V6.03039V6.01623V6.00228V5.98855V5.97503V5.96173V5.94865V5.93579V5.92315V5.91073V5.89853V5.88656V5.87481V5.86329V5.85199V5.84092V5.83008V5.81946V5.80908V5.79893V5.78901V5.77933V5.76988V5.76067V5.75169V5.74295V5.73445V5.72619V5.71817V5.71039V5.70286V5.69556V5.68912C2.3277 5.81707 2.65999 5.8841 3.00245 5.8841H23C23.54 5.8841 23.9794 6.32353 23.9794 6.86351V6.934V9.95998H18.7961C18.7925 9.95998 18.7893 9.96022 18.7877 9.96033L18.7876 9.96034C18.7863 9.96043 18.7858 9.96047 18.7857 9.96047C17.2427 9.96617 15.9892 11.223 15.9892 12.7672C15.9892 14.309 17.2386 15.5639 18.778 15.5738C18.7782 15.5738 18.7784 15.5738 18.7785 15.5738L18.7838 15.5742L18.7839 15.5742C18.7867 15.5744 18.7912 15.5747 18.7961 15.5747H23.9794V18.6714C23.9794 19.2113 23.54 19.6508 23 19.6508ZM23.9794 14.0041H21.3151C21.6918 13.2397 21.7068 12.3246 21.3153 11.5306H23.9794V14.0041ZM18.7962 11.5308C19.478 11.5308 20.0326 12.0855 20.0326 12.7672C20.0326 13.449 19.478 14.0037 18.7962 14.0037C18.1145 14.0037 17.5598 13.449 17.5598 12.7672C17.5598 12.0855 18.1145 11.5308 18.7962 11.5308Z"/>
</svg>
